<?xml version="1.0" encoding="UTF-8"?><svg id="Calque_2" xmlns="http://www.w3.org/2000/svg" viewBox="0 0 16 16"><defs><style>.cls-1{fill:#f6f7f7;}</style></defs><g id="Calque_1-2"><path class="cls-1" d="m8,0C3.58,0,0,3.58,0,8s3.58,8,8,8,8-3.58,8-8S12.42,0,8,0ZM3.78,11.98c-.37-.42-.58-.62-1.06-.94.65-.46,1.13-.93,1.62-1.58.66-.88,1.04-1.65,1.33-2.73h-1.4c-.43,0-.85.02-1.12.06v-1.36c.3.05.59.06,1.19.06h1.17c.51,0,.77-.01.98-.05l.63.7c-.09.23-.09.24-.23.75-.39,1.36-.71,2.07-1.42,3.17-.52.79-1,1.35-1.68,1.92Zm8.53.05c-.92-.66-1.34-1.02-1.91-1.66-.74-.86-1.31-1.8-1.76-2.92.04,1.12.06,1.37.06,1.74v2.67c0,.5-.07.72-.28.9-.2.17-.53.25-1.07.25-.41,0-1.01-.03-1.45-.07-.06-.52-.11-.78-.31-1.28.59.08,1.08.13,1.45.13.33,0,.4-.04.4-.27v-7.38c0-.46-.02-.84-.07-1.17h1.41c-.05.36-.07.7-.07,1.18v.78c.13.71.29,1.14.73,2.02,1.07-.94,1.75-1.73,2.07-2.42l1.14.89s-.21.23-.59.66c-.63.7-1.23,1.26-2,1.88.37.52.8,1.03,1.27,1.47.62.59,1.12.96,1.94,1.38-.38.38-.59.63-.96,1.2Z"/></g></svg>