<?xml version="1.0" encoding="UTF-8"?><svg id="Calque_2" xmlns="http://www.w3.org/2000/svg" viewBox="0 0 47.53 16"><defs><style>.cls-1{fill:#212324;}</style></defs><g id="Calque_1-2"><path class="cls-1" d="m8,0C3.58,0,0,3.58,0,8s3.58,8,8,8,8-3.58,8-8S12.42,0,8,0ZM3.78,11.98c-.37-.42-.58-.62-1.06-.94.65-.46,1.13-.93,1.62-1.58.66-.88,1.04-1.65,1.33-2.73h-1.4c-.43,0-.85.02-1.12.06v-1.36c.3.05.59.06,1.19.06h1.17c.51,0,.77-.01.98-.05l.63.7c-.09.23-.09.24-.23.75-.39,1.36-.71,2.07-1.42,3.17-.52.79-1,1.35-1.68,1.92Zm8.53.05c-.92-.66-1.34-1.02-1.91-1.66-.74-.86-1.31-1.8-1.76-2.92.04,1.12.06,1.37.06,1.74v2.67c0,.5-.07.72-.28.9-.2.17-.53.25-1.07.25-.41,0-1.01-.03-1.45-.07-.06-.52-.11-.78-.31-1.28.59.08,1.08.13,1.45.13.33,0,.4-.04.4-.27v-7.38c0-.46-.02-.84-.07-1.17h1.41c-.05.36-.07.7-.07,1.18v.78c.13.71.29,1.14.73,2.02,1.07-.94,1.75-1.73,2.07-2.42l1.14.89s-.21.23-.59.66c-.63.7-1.23,1.26-2,1.88.37.52.8,1.03,1.27,1.47.62.59,1.12.96,1.94,1.38-.38.38-.59.63-.96,1.2Z"/><g><path class="cls-1" d="m29.54,0v8.42h-2.05V3.37l-1.88,5.05h-1.66l-1.9-5.06v5.06h-2.05V0h2.42l2.36,5.83,2.34-5.83h2.41Z"/><path class="cls-1" d="m32.59,0v8.42h-2.05V0h2.05Z"/><path class="cls-1" d="m35.92,6.74h3.62v1.68h-5.95v-1.56l3.6-5.18h-3.6V0h5.95v1.56l-3.62,5.18Z"/><path class="cls-1" d="m42.57,0v4.99c0,.5.12.88.37,1.15.25.27.61.4,1.08.4s.84-.14,1.09-.4c.25-.27.38-.65.38-1.15V0h2.03v4.98c0,.75-.16,1.37-.48,1.89-.32.52-.74.9-1.28,1.17-.53.26-1.13.39-1.79.39s-1.25-.13-1.76-.39-.93-.65-1.23-1.17c-.3-.52-.45-1.15-.45-1.9V0h2.03Z"/></g><g><path class="cls-1" d="m20.33,11.78c.22-.42.52-.76.89-1,.38-.24.8-.36,1.26-.36.54,0,1.02.14,1.42.43s.7.69.88,1.22h-.78c-.14-.33-.34-.58-.6-.76-.26-.18-.57-.27-.93-.27s-.66.09-.93.27c-.28.18-.49.43-.65.76-.16.33-.24.71-.24,1.15s.08.81.24,1.14c.16.33.37.58.65.75.28.18.59.27.93.27s.67-.09.93-.26c.26-.17.46-.43.6-.76h.78c-.19.52-.48.92-.88,1.21-.4.28-.88.43-1.42.43-.46,0-.88-.12-1.26-.36-.38-.24-.68-.57-.89-.99s-.33-.9-.33-1.43.11-1.01.33-1.44Z"/><path class="cls-1" d="m28.58,14.75h-2.17l-.4,1.25h-.68l1.8-5.57h.75l1.79,5.57h-.68l-.4-1.25Zm-.19-.59l-.9-2.83-.9,2.83h1.8Z"/><path class="cls-1" d="m33.51,13.21c-.28.31-.71.46-1.29.46h-.95v2.33h-.65v-5.57h1.6c.56,0,.98.15,1.27.46.29.3.44.7.44,1.17s-.14.85-.42,1.16Zm-.49-.4c.17-.18.26-.43.26-.75,0-.69-.35-1.03-1.05-1.03h-.95v2.05h.95c.36,0,.62-.09.79-.26Z"/><path class="cls-1" d="m35.51,10.43v5.57h-.65v-5.57h.65Z"/><path class="cls-1" d="m39.78,10.43v.59h-1.35v4.98h-.65v-4.98h-1.35v-.59h3.35Z"/><path class="cls-1" d="m43.16,14.75h-2.17l-.4,1.25h-.68l1.8-5.57h.75l1.79,5.57h-.68l-.4-1.25Zm-.19-.59l-.9-2.83-.9,2.83h1.8Z"/><path class="cls-1" d="m45.8,15.41h1.73v.59h-2.38v-5.57h.65v4.98Z"/></g></g></svg>